<svg id="LOGO" xmlns="http://www.w3.org/2000/svg" xmlns:xlink="http://www.w3.org/1999/xlink" width="192.154" height="52" viewBox="0 0 192.154 52">
  <defs>
    <clipPath id="clip-path">
      <rect id="Retângulo_596" data-name="Retângulo 596" width="192.154" height="52" fill="#0049ff"/>
    </clipPath>
  </defs>
  <g id="Grupo_360" data-name="Grupo 360" clip-path="url(#clip-path)">
    <path id="Caminho_489" data-name="Caminho 489" d="M35.734,19.28a.229.229,0,0,1-.063.156.214.214,0,0,1-.156.063H24.185a.217.217,0,0,0-.22.22v5.133a.229.229,0,0,0,.063.156.218.218,0,0,0,.156.064H33.7a.229.229,0,0,1,.156.063.22.22,0,0,1,.063.156v6.061a.217.217,0,0,1-.22.22H24.185a.217.217,0,0,0-.22.22v8.847a.229.229,0,0,1-.063.156.218.218,0,0,1-.156.063h-5.9a.229.229,0,0,1-.156-.063.209.209,0,0,1-.063-.156V13.218a.219.219,0,0,1,.22-.22H35.514a.219.219,0,0,1,.22.22ZM1.307,0A1.306,1.306,0,0,0,0,1.307V50.693A1.308,1.308,0,0,0,1.307,52H43.261a1.9,1.9,0,0,0,1.278-.492c1.439-1.3,5.331-4.821,6.86-6.2a1.9,1.9,0,0,0,.627-1.413V1.307A1.306,1.306,0,0,0,50.719,0Z" fill="#0049ff" fill-rule="evenodd"/>
    <path id="Caminho_490" data-name="Caminho 490" d="M253.368,49.29a1.683,1.683,0,0,1,.683.138,1.792,1.792,0,0,1,.556.376,1.689,1.689,0,0,1,.376.558,1.733,1.733,0,0,1,.135.68,1.71,1.71,0,0,1-.135.677,1.689,1.689,0,0,1-.376.558,1.792,1.792,0,0,1-.556.376,1.683,1.683,0,0,1-.683.138h-.934v1.749h-.974V49.29h1.908m0,2.54a.662.662,0,0,0,.294-.066.852.852,0,0,0,.243-.175.825.825,0,0,0,.169-.251.722.722,0,0,0,.063-.3.713.713,0,0,0-.063-.3.913.913,0,0,0-.169-.251.89.89,0,0,0-.243-.175.662.662,0,0,0-.294-.066h-.934V51.83Z" transform="translate(-184.929 -36.249)" fill="#0049ff"/>
    <path id="Caminho_491" data-name="Caminho 491" d="M276.034,52.624h-.73v1.916h-.974V49.29h2.029a1.726,1.726,0,0,1,.677.13,1.653,1.653,0,0,1,.9.876,1.514,1.514,0,0,1,.13.622,1.4,1.4,0,0,1-.172.733,1.891,1.891,0,0,1-.381.474,1.729,1.729,0,0,1-.545.333l1.22,2.082h-1.1Zm-.73-.958h1.056a.71.71,0,0,0,.521-.212.684.684,0,0,0,0-.99.71.71,0,0,0-.521-.212H275.3v1.413Z" transform="translate(-201.749 -36.249)" fill="#0049ff"/>
    <path id="Caminho_492" data-name="Caminho 492" d="M297.556,51.8a1.86,1.86,0,0,0,.122.688,1.816,1.816,0,0,0,.325.542,1.457,1.457,0,0,0,.476.355,1.359,1.359,0,0,0,.579.124,1.387,1.387,0,0,0,.577-.124,1.405,1.405,0,0,0,.479-.355,1.816,1.816,0,0,0,.325-.542,2,2,0,0,0,0-1.376,1.816,1.816,0,0,0-.325-.542,1.468,1.468,0,0,0-.479-.355,1.355,1.355,0,0,0-.577-.124,1.395,1.395,0,0,0-1.056.479,1.816,1.816,0,0,0-.325.542,1.86,1.86,0,0,0-.122.688m3.979,0A2.739,2.739,0,0,1,300.8,53.7a2.427,2.427,0,0,1-.788.566,2.341,2.341,0,0,1-1.91,0,2.427,2.427,0,0,1-.788-.566,2.778,2.778,0,0,1-.534-.844,2.865,2.865,0,0,1,0-2.1,2.79,2.79,0,0,1,.534-.849,2.427,2.427,0,0,1,.788-.566,2.341,2.341,0,0,1,1.91,0,2.427,2.427,0,0,1,.788.566,2.765,2.765,0,0,1,.736,1.894Z" transform="translate(-218.112 -36.139)" fill="#0049ff"/>
    <path id="Caminho_493" data-name="Caminho 493" d="M325.344,50.248v1.294h1.99V52.5h-1.99v2.04h-.974V49.29h3.41v.958Z" transform="translate(-238.549 -36.249)" fill="#0049ff"/>
    <path id="Caminho_494" data-name="Caminho 494" d="M349.777,53.581v.958H346.16V49.29h3.535v.958h-2.558v1.127h2.355v.958h-2.355v1.249Z" transform="translate(-254.574 -36.249)" fill="#0049ff"/>
    <path id="Caminho_495" data-name="Caminho 495" d="M368.145,50.655a1.346,1.346,0,0,1,.127-.574,1.439,1.439,0,0,1,.357-.479,1.793,1.793,0,0,1,.561-.328,2.116,2.116,0,0,1,.743-.124,1.869,1.869,0,0,1,.693.124,1.638,1.638,0,0,1,.54.349,1.564,1.564,0,0,1,.349.529,1.75,1.75,0,0,1,.122.661H370.7a.743.743,0,0,0-.2-.55.781.781,0,0,0-.569-.2.821.821,0,0,0-.569.183.538.538,0,0,0-.2.4.393.393,0,0,0,.2.357,2.331,2.331,0,0,0,.487.225c.2.066.407.135.638.209a2.852,2.852,0,0,1,.638.291,1.586,1.586,0,0,1,.487.479,1.378,1.378,0,0,1,.193.77,1.238,1.238,0,0,1-.132.55,1.585,1.585,0,0,1-.378.479,1.92,1.92,0,0,1-.59.341,2.152,2.152,0,0,1-.767.13,2.255,2.255,0,0,1-.767-.124,1.644,1.644,0,0,1-.574-.355,1.535,1.535,0,0,1-.36-.54,1.819,1.819,0,0,1-.127-.688h.974a.767.767,0,0,0,.228.571.864.864,0,0,0,.624.22.942.942,0,0,0,.643-.188.569.569,0,0,0,.212-.437.424.424,0,0,0-.193-.376,2.2,2.2,0,0,0-.487-.238c-.193-.069-.407-.138-.638-.2a2.813,2.813,0,0,1-.638-.275,1.567,1.567,0,0,1-.487-.455,1.263,1.263,0,0,1-.2-.738Z" transform="translate(-270.709 -36.146)" fill="#0049ff"/>
    <path id="Caminho_496" data-name="Caminho 496" d="M390.252,50.655a1.346,1.346,0,0,1,.127-.574,1.438,1.438,0,0,1,.357-.479,1.823,1.823,0,0,1,.561-.328,2.116,2.116,0,0,1,.743-.124,1.893,1.893,0,0,1,.7.124,1.637,1.637,0,0,1,.54.349,1.564,1.564,0,0,1,.349.529,1.75,1.75,0,0,1,.122.661h-.934a.743.743,0,0,0-.2-.55.781.781,0,0,0-.569-.2.821.821,0,0,0-.569.183.538.538,0,0,0-.2.4.4.4,0,0,0,.193.357,2.332,2.332,0,0,0,.487.225c.193.066.407.135.638.209a2.852,2.852,0,0,1,.638.291,1.615,1.615,0,0,1,.487.479,1.378,1.378,0,0,1,.2.77,1.207,1.207,0,0,1-.135.55,1.546,1.546,0,0,1-.378.479,1.876,1.876,0,0,1-.587.341,2.152,2.152,0,0,1-.767.13,2.255,2.255,0,0,1-.767-.124A1.608,1.608,0,0,1,390.7,54a1.541,1.541,0,0,1-.362-.54,1.819,1.819,0,0,1-.127-.688h.974a.767.767,0,0,0,.228.571.864.864,0,0,0,.624.22.943.943,0,0,0,.643-.188.569.569,0,0,0,.212-.437.426.426,0,0,0-.2-.376,2.2,2.2,0,0,0-.487-.238c-.193-.069-.407-.138-.638-.2a2.813,2.813,0,0,1-.638-.275,1.567,1.567,0,0,1-.487-.455,1.263,1.263,0,0,1-.2-.738Z" transform="translate(-286.969 -36.146)" fill="#0049ff"/>
    <path id="Caminho_497" data-name="Caminho 497" d="M413.129,51.8a1.917,1.917,0,0,0,.122.688,1.763,1.763,0,0,0,.325.542,1.457,1.457,0,0,0,.476.355,1.35,1.35,0,0,0,.579.124,1.406,1.406,0,0,0,1.056-.479,1.816,1.816,0,0,0,.325-.542,2,2,0,0,0,0-1.376,1.816,1.816,0,0,0-.325-.542,1.441,1.441,0,0,0-.479-.355,1.364,1.364,0,0,0-.577-.124,1.395,1.395,0,0,0-1.056.479,1.816,1.816,0,0,0-.325.542,1.861,1.861,0,0,0-.122.688m3.979,0a2.739,2.739,0,0,1-.736,1.894,2.427,2.427,0,0,1-.788.566,2.341,2.341,0,0,1-1.91,0,2.427,2.427,0,0,1-.788-.566,2.778,2.778,0,0,1-.534-.844,2.74,2.74,0,0,1-.2-1.05,2.675,2.675,0,0,1,.2-1.045,2.79,2.79,0,0,1,.534-.849,2.427,2.427,0,0,1,.788-.566,2.341,2.341,0,0,1,1.91,0,2.427,2.427,0,0,1,.788.566,2.8,2.8,0,0,1,.537.849A2.742,2.742,0,0,1,417.108,51.8Z" transform="translate(-303.104 -36.139)" fill="#0049ff"/>
    <path id="Caminho_498" data-name="Caminho 498" d="M441.657,52.624h-.73v1.916h-.976V49.29h2.032a1.727,1.727,0,0,1,.677.13,1.653,1.653,0,0,1,.9.876,1.514,1.514,0,0,1,.13.622,1.431,1.431,0,0,1-.169.733,1.841,1.841,0,0,1-.384.474,1.746,1.746,0,0,1-.542.333l1.22,2.082h-1.1Zm-.73-.958h1.056a.7.7,0,0,0,.519-.212.684.684,0,0,0,0-.99.709.709,0,0,0-.519-.212h-1.056v1.413Z" transform="translate(-323.549 -36.249)" fill="#0049ff"/>
    <path id="Caminho_499" data-name="Caminho 499" d="M251.443,91.277a.217.217,0,0,1,.217-.217h11.186a.217.217,0,0,1,.217.217v3.76a.217.217,0,0,1-.217.214h-6.718a.228.228,0,0,0-.153.063.218.218,0,0,0-.063.153v2.318a.217.217,0,0,0,.217.214h5.313a.217.217,0,0,1,.217.217v3.757a.217.217,0,0,1-.217.217h-5.313a.228.228,0,0,0-.153.063.217.217,0,0,0-.063.151v4.937a.217.217,0,0,1-.217.214h-4.037a.217.217,0,0,1-.217-.214V91.272Z" transform="translate(-184.915 -66.968)" fill="#0049ff"/>
    <path id="Caminho_500" data-name="Caminho 500" d="M307.91,91.277a.217.217,0,0,1,.217-.217h11.567a.217.217,0,0,1,.217.217V94.9a.217.217,0,0,1-.217.217h-7.1a.223.223,0,0,0-.153.063.218.218,0,0,0-.063.153V97a.217.217,0,0,0,.217.217h6.461a.217.217,0,0,1,.217.214v3.5a.217.217,0,0,1-.217.217H312.6a.218.218,0,0,0-.217.217v1.926a.216.216,0,0,0,.217.217h7.355a.216.216,0,0,1,.217.217v3.627a.216.216,0,0,1-.217.217H308.127a.218.218,0,0,1-.217-.217V91.277Z" transform="translate(-226.444 -66.968)" fill="#0049ff"/>
    <path id="Caminho_501" data-name="Caminho 501" d="M376.67,107.579a.216.216,0,0,1-.19-.114c-.222-.41-.471-.889-.743-1.431-.3-.6-.59-1.169-.881-1.728q-.456-.913-.937-1.847a.216.216,0,0,0-.19-.116h-1.312a.216.216,0,0,0-.217.217v4.807a.217.217,0,0,1-.217.214h-4.037a.217.217,0,0,1-.214-.214V91.3a.217.217,0,0,1,.214-.217h6.808a6.652,6.652,0,0,1,2.437.431,5.626,5.626,0,0,1,1.9,1.2,5.494,5.494,0,0,1,1.225,1.794,5.573,5.573,0,0,1,.434,2.2,4.482,4.482,0,0,1-.447,2.109,6.481,6.481,0,0,1-.958,1.4,5.949,5.949,0,0,1-1.22.968.221.221,0,0,0-.079.294l3.286,5.776a.221.221,0,0,1,0,.214.218.218,0,0,1-.188.108H376.67Zm-2.17-9.43h0a1.693,1.693,0,0,0,1.212-.421,1.39,1.39,0,0,0,0-2.043,1.707,1.707,0,0,0-1.212-.418h-2.082a.217.217,0,0,0-.214.217v2.45a.217.217,0,0,0,.214.217H374.5Z" transform="translate(-270.437 -66.982)" fill="#0049ff"/>
    <path id="Caminho_502" data-name="Caminho 502" d="M439.393,107.579a.216.216,0,0,1-.19-.114c-.222-.41-.471-.889-.743-1.431-.3-.6-.593-1.169-.881-1.728q-.456-.913-.937-1.847a.216.216,0,0,0-.191-.116h-1.312a.216.216,0,0,0-.217.217v4.807a.206.206,0,0,1-.064.151.218.218,0,0,1-.153.063h-4.037a.217.217,0,0,1-.217-.214V91.3a.217.217,0,0,1,.217-.217h6.8a6.666,6.666,0,0,1,2.439.431,5.626,5.626,0,0,1,1.9,1.2,5.453,5.453,0,0,1,1.225,1.794,5.526,5.526,0,0,1,.434,2.2,4.481,4.481,0,0,1-.447,2.109,6.48,6.48,0,0,1-.958,1.4,5.949,5.949,0,0,1-1.22.968.219.219,0,0,0-.079.294c.5.884,2.641,4.646,3.286,5.776a.216.216,0,0,1-.188.323h-4.474Zm-2.17-9.43h0a1.693,1.693,0,0,0,1.212-.421,1.39,1.39,0,0,0,0-2.043,1.707,1.707,0,0,0-1.212-.418h-2.082a.217.217,0,0,0-.217.217v2.45a.217.217,0,0,0,.217.217h2.082Z" transform="translate(-316.563 -66.982)" fill="#0049ff"/>
    <path id="Caminho_503" data-name="Caminho 503" d="M493.21,91.277a.217.217,0,0,1,.217-.217h11.567a.217.217,0,0,1,.217.217V94.9a.208.208,0,0,1-.063.153.218.218,0,0,1-.153.063h-7.1a.217.217,0,0,0-.217.217V97a.217.217,0,0,0,.217.217h6.461a.217.217,0,0,1,.217.214v3.5a.208.208,0,0,1-.063.153.218.218,0,0,1-.153.063H497.9a.218.218,0,0,0-.217.217v1.926a.216.216,0,0,0,.217.217h7.355a.216.216,0,0,1,.217.217v3.627a.216.216,0,0,1-.217.217H493.427a.218.218,0,0,1-.217-.217V91.277Z" transform="translate(-362.718 -66.968)" fill="#0049ff"/>
    <path id="Caminho_504" data-name="Caminho 504" d="M557.98,107.347a.217.217,0,0,1-.214.214h-4.037a.217.217,0,0,1-.217-.214V95.73a.218.218,0,0,0-.217-.217h-3.91a.217.217,0,0,1-.214-.214V91.277a.217.217,0,0,1,.214-.217H562.1a.223.223,0,0,1,.153.063.218.218,0,0,1,.063.153V95.3a.217.217,0,0,1-.217.214h-3.908a.216.216,0,0,0-.217.217v11.618Z" transform="translate(-403.872 -66.968)" fill="#0049ff"/>
    <path id="Caminho_505" data-name="Caminho 505" d="M616.37,107.347a.217.217,0,0,1-.214.214h-4.037a.217.217,0,0,1-.217-.214V95.73a.218.218,0,0,0-.217-.217h-3.91a.217.217,0,0,1-.214-.214V91.277a.217.217,0,0,1,.214-.217h12.718a.223.223,0,0,1,.153.063.218.218,0,0,1,.063.153V95.3a.217.217,0,0,1-.217.214h-3.908a.216.216,0,0,0-.217.217v11.618Z" transform="translate(-446.813 -66.968)" fill="#0049ff"/>
    <path id="Caminho_506" data-name="Caminho 506" d="M668.976,98.591a4.431,4.431,0,0,0,.294,1.638,4.053,4.053,0,0,0,.791,1.283,3.576,3.576,0,0,0,1.175.839,3.6,3.6,0,0,0,2.884,0,3.565,3.565,0,0,0,1.175-.839,4.006,4.006,0,0,0,.791-1.283,4.713,4.713,0,0,0,0-3.275,4.006,4.006,0,0,0-.791-1.283,3.576,3.576,0,0,0-1.175-.839,3.6,3.6,0,0,0-2.884,0,3.6,3.6,0,0,0-1.175.839,4.006,4.006,0,0,0-.791,1.283,4.431,4.431,0,0,0-.294,1.638m11.874,0a8.988,8.988,0,0,1-.624,3.365,8.113,8.113,0,0,1-4.342,4.493,8.183,8.183,0,0,1-6.421,0,8.249,8.249,0,0,1-2.593-1.794,8.146,8.146,0,0,1-1.736-2.7,9.382,9.382,0,0,1,0-6.731,8.125,8.125,0,0,1,4.328-4.493,8.214,8.214,0,0,1,6.421,0,8.113,8.113,0,0,1,4.342,4.493,8.988,8.988,0,0,1,.624,3.365" transform="translate(-488.696 -66.247)" fill="#0049ff"/>
  </g>
</svg>
